<?xml version="1.0" standalone="no"?>
<!DOCTYPE svg PUBLIC "-//W3C//DTD SVG 20010904//EN"
 "http://www.w3.org/TR/2001/REC-SVG-20010904/DTD/svg10.dtd">
<svg version="1.0" xmlns="http://www.w3.org/2000/svg"
 width="723.000000pt" height="723.000000pt" viewBox="0 0 723.000000 723.000000"
 preserveAspectRatio="xMidYMid meet">
<metadata>
Created by potrace 1.11, written by Peter Selinger 2001-2013
</metadata>
<g transform="translate(0.000000,723.000000) scale(0.100000,-0.100000)"
fill="#000000" stroke="none">
<path d="M1 3628 c0 -1982 4 -3594 9 -3583 7 17 2544 6679 2602 6833 l19 52
989 0 989 0 19 -52 c140 -372 2594 -6814 2598 -6817 2 -2 4 1610 4 3582 l0
3587 -3615 0 -3615 0 1 -3602z"/>
<path d="M3218 3717 l-396 -1132 399 -3 c219 -1 579 -1 798 0 l399 3 -397
1132 c-218 623 -398 1133 -401 1133 -3 0 -183 -510 -402 -1133z"/>
<path d="M2331 1178 c-20 -54 -401 -1167 -401 -1172 0 -4 761 -6 1690 -6 930
0 1690 3 1690 8 -1 4 -92 273 -204 597 l-203 590 -1282 3 -1281 2 -9 -22z"/>
</g>
</svg>
